<svg id="Capa_1" enable-background="new 0 0 512 512" height="512" viewBox="0 0 512 512" width="512" xmlns="http://www.w3.org/2000/svg"><g id="Landscape_2_"><g><path d="m512 512h-512v-512h512zm-482-30h452v-452h-452z"/></g><g><path d="m445.271 421h-378.542l113.255-226.51 44.688 76.608 77.107-137.08zm-330-30h281.459l-96.509-193.018-75.076 133.467-43.13-73.938z"/></g><g><path d="m196 181c-24.813 0-45-20.187-45-45s20.187-45 45-45 45 20.187 45 45-20.187 45-45 45zm0-60c-8.271 0-15 6.729-15 15s6.729 15 15 15 15-6.729 15-15-6.729-15-15-15z"/></g></g></svg>